# xmcd
#
# Track frame offsets:
#	150
#	19023
#	36246
#	50769
#	75942
#	93165
#	112563
#	129336
#	144834
#	162357
#
# Disc length: 2384 seconds
#
# Revision: 0
# Processed by: cddbd v1.5.2PL0 Copyright (c) Steve Scherf et al.
# Submitted via: audiograbber 1.83.01
#
DISCID=6a094e0a
DTITLE=Toby Keith - Chronicles - Disc 3
DYEAR=1900
DGENRE=Country
TTITLE0=The Lonely
TTITLE1=Every Night
TTITLE2=Closin' Time At Home
TTITLE3=A Woman's Touch
TTITLE4=Does That Blue Moon Ever Shine on You
TTITLE5=Lucky Me
TTITLE6=She's Perfect
TTITLE7=She's Gonna Get It
TTITLE8=Me Too
TTITLE9=Hello
EXTD=
EXTT0=
EXTT1=
EXTT2=
EXTT3=
EXTT4=
EXTT5=
EXTT6=
EXTT7=
EXTT8=
EXTT9=
PLAYORDER=
